/* XPM */
static char *ea1b8c6db8d5485d8aa2274e0db74686[] = {
/* columns rows colors chars-per-pixel */
"16 16 90 1 ",
"  c #23A9E1",
". c #27AAE1",
"X c #24A9E2",
"o c #25AAE2",
"O c #26AAE2",
"+ c #27AAE2",
"@ c #27ABE2",
"# c #29AAE1",
"$ c #2BAAE0",
"% c #2AABE1",
"& c #28AAE2",
"* c #28ABE2",
"= c #29ABE2",
"- c #2BABE2",
"; c #2CABE0",
": c #2EABE1",
"> c #2BACE2",
", c #2EACE0",
"< c #2CACE2",
"1 c #2EACE2",
"2 c #2EADE2",
"3 c #2EADE3",
"4 c #2FADE3",
"5 c #30AEE3",
"6 c #31AEE3",
"7 c #32AFE3",
"8 c #35AFE2",
"9 c #34AFE3",
"0 c #35AFE3",
"q c #3CB2E3",
"w c #3EB2E2",
"e c #3EB2E3",
"r c #3DB3E5",
"t c #47B5E3",
"y c #45B4E4",
"u c #49B6E4",
"i c #49B6E5",
"p c #49B8E6",
"a c #52B9E5",
"s c #55BAE5",
"d c #55BBE5",
"f c #54BCE7",
"g c #58BCE6",
"h c #63C0E7",
"j c #64C2EA",
"k c #69C2E8",
"l c #6CC3E8",
"z c #69C4EB",
"x c #6EC4E8",
"c c #6DC5EB",
"v c #6EC6EB",
"b c #72C6E9",
"n c #7CC9EA",
"m c #7CCAEA",
"M c #7DCAEB",
"N c #7ECAEB",
"B c #79CBED",
"V c #7BCBED",
"C c #7CCBED",
"Z c #7ECCEE",
"A c #81CCEB",
"S c #82CEEE",
"D c #8CD2EF",
"F c #90D3F0",
"G c #94D5F0",
"H c #A1DAF2",
"J c #A1DBF2",
"K c #A2DAF2",
"L c #A3DBF2",
"P c #A4DBF2",
"I c #A5DCF3",
"U c #A7DDF3",
"Y c #A8DDF3",
"T c #A9DDF3",
"R c #AADDF3",
"E c #AADEF4",
"W c #ACDEF4",
"Q c #B6E2F5",
"! c #B7E3F5",
"~ c #C3E7F7",
"^ c #C4E8F7",
"/ c #C7E9F7",
"( c #C9EAF8",
") c #CAEAF8",
"_ c #D2EDF9",
"` c #DDF2FA",
"' c #EFF9FD",
"] c #F2F9FD",
"[ c #F5FBFE",
"{ c None",
/* pixels */
"{{{{{{bdak{{{{{{",
"{{{{d3&&@@-i{{{{",
"{{{8@&@@@@XX&A{{",
"{{8@&@iBBCBCCf{{",
"{g@&&&G])))/)vq{",
"{3&&&3!!53999&&N",
"b@@@@9_D @&&&&>t",
"d>SPHW]/LLHPv@&3",
"a3DUU~[QUWWYk@&-",
"k@&@ Z`r@@@@@&&q",
"{-&&@H/3@&&>>&&x",
"{i@@3/W&@&>&&>8{",
"{{3&9Dj@&>&&>@N{",
"{{A&&&@&>&>@@h{{",
"{{{{q&>&&@@8N{{{",
"{{{{{Nt--ql{{{{{"
};
