/* XPM */
static char *a95d47821314402f9472a053fb164a5c[] = {
/* columns rows colors chars-per-pixel */
"64 64 64 1 ",
"  c #2AA4D7",
". c #2CA5D8",
"X c #2EABDF",
"o c #31A7D9",
"O c #34ABDD",
"+ c #3BADDD",
"@ c #1EA7E0",
"# c #20A7E1",
"$ c #25A9E1",
"% c #29ABE2",
"& c #32AEE2",
"* c #37B0E4",
"= c #3DB2E4",
"- c #44AEDC",
"; c #45B1DE",
": c #4BB2DE",
"> c #53B5DF",
", c #5AB6DD",
"< c #5DB8DE",
"1 c #60B8DE",
"2 c #45B5E6",
"3 c #4BB6E4",
"4 c #4EB9E7",
"5 c #54B7E1",
"6 c #52BBE7",
"7 c #5CB9E1",
"8 c #57BCE8",
"9 c #5ABEE8",
"0 c #63BCE1",
"q c #6BBEE1",
"w c #5DC0E9",
"e c #63C2EA",
"r c #6DC5EB",
"t c #74C1E2",
"y c #7BC4E3",
"u c #72C7EC",
"i c #75C9EC",
"p c #7BCAED",
"a c #81C7E4",
"s c #86C8E4",
"d c #8BCAE5",
"f c #84CEEE",
"g c #87D0EE",
"h c #8FD3EF",
"j c #91D4EF",
"k c #95D5F0",
"l c #9BD7F1",
"z c #9DD8F2",
"x c #A4DBF2",
"c c #ACDEF3",
"v c #B1E0F4",
"b c #BCE5F6",
"n c #C2E7F6",
"m c #C5E8F7",
"M c #CBEBF7",
"N c #CDEBF8",
"B c #D4EEF9",
"V c #DAF0FA",
"C c #E4F4FB",
"Z c #EBF7FC",
"A c #EEF8FD",
"S c #F2FAFD",
"D c #FEFFFF",
"F c None",
/* pixels */
"FFFFFFFFFFFFFFFFFFFFFFFFFFFFFFFFFFFFFFFFFFFFFFFFFFFFFFFFFFFFFFFF",
"FFFFFFFFFFFFFFFFFFFFFFFFFFFy<:+ooO+:0yFFFFFFFFFFFFFFFFFFFFFFFFFF",
"FFFFFFFFFFFFFFFFFFFFFFFqO&%&%%%%%%%%%%&%+tFFFFFFFFFFFFFFFFFFFFFF",
"FFFFFFFFFFFFFFFFFFFFt+%%%%%$%%%%%%%%%%%%%%%+yFFFFFFFFFFFFFFFFFFF",
"FFFFFFFFFFFFFFFFFFq&%%%%%%%%%%%%%%%%%%%%%%%%%OtFFFFFFFFFFFFFFFFF",
"FFFFFFFFFFFFFFFFt&$%%%%%%%%%%%$%%%%%%%%%%%%%%%$OaFFFFFFFFFFFFFFF",
"FFFFFFFFFFFFFFF;$%%%%%%%%%%%%%%%%%%%%%%%%%%%%%%%%:FFFFFFFFFFFFFF",
"FFFFFFFFFFFFFy&$%%%%%%%%%%%%%%%%%%%%%%%%%%%%%%%%%$OsFFFFFFFFFFFF",
"FFFFFFFFFFFF7X$%%%%%%%%%%%%%%%%%%%%%%%%%%%%%%%%%%%$XeFFFFFFFFFFF",
"FFFFFFFFFFF5%%%%%%%%%%%%%%%%%%%%%%%%%%%%%%%%%%%%%%%$X7FFFFFFFFFF",
"FFFFFFFFFF5$%%%%%%%%%%%%%%%%%%%%%%%%%%%%%%%%%%%%%%%%%$7FFFFFFFFF",
"FFFFFFFFF5#%%%%%%%%%%%%%%%%%%%%%%%%%%%%%%%%%%%%%%%%%%X$7FFFFFFFF",
"FFFFFFFF7%%$%%%%%%%%%%%%%%%%%%%%%%%%%%%%%%%%%%%%%%%%%%%$qFFFFFFF",
"FFFFFFFy%%%%%%%%%%%%%%%%%%%#$$$$$#$$$$$$$$$$$$$$$$$$%#%%%dFFFFFF",
"FFFFFFFO%%%%%%%%%%%%%%%%%%6jhhhhjhhhhhhhhhhhhhhhhhhhhf3%%+FFFFFF",
"FFFFFF;%%%%%%%%%%%%%%%%%%&hSSSSSSSSSSSSSSSSSSSSSSSSSSMw$%$>FFFFF",
"FFFFFy$%%%%%%%%%%%%%%%%%%=vDDDDDDDDDDDDDDDDDDDDDDDDDDm4%%%%sFFFF",
"FFFFF&%%%%%%%%%%%%%%%%%%%2NDDDDDDDDDDDDDDDDDDDDDDDDDDc*%%%%+FFFF",
"FFFFq$%%%%%%%%%%%%%%%%%%$6ZDDDDDDSDDDSDDDDDDDSDDDDDDDk%%%%%%yFFF",
"FFFFX%%%%%%%%%%%$%%%%%%%%eDDDDVp698898988688898868869=%%%%%%OFFF",
"FFFt%%%%%%%%%%%%%%%%%%%%&pDDDDn3%%%%%%&%%%%%%%%%%%%%%%%%%%%%&sFF",
"FFF+%%%%%%%%%%%%%%%%%%%%*zDDDDv&%%%%%%$%$%%%%%%%%%%%%%%%%%%%$;FF",
"FFF%%%%%%%%%%%%%%%%%%%%%=bDDDDz$%%%%%%%%%%%%%%%%%%%%%%%%%%%%$&FF",
"FFq%%%%%%%%$%%%%%%%%%%%%2VDDDSf#%%%%%%%%%%%%%%%%%%%%%%%%%%%%%%yF",
"FF+%%%%%%%%%%%%%%%%%%%%%4SDDDCr$%%%%%%%%%%%%%%%%%%%%%%%%%%%%%%:F",
"FF&%%%%%%%%%%%%%%%%%%%%%rDDDDN6$%%%%%%%%%%%%%%%%%%%%%%%%%%%%%%&F",
"FF%%%%%%%%%%%%%%%%%%%%%&gDDDDb=%%%%%%%%%%%%%%%%%%%%%%%%%%%%%%%&F",
"Fy%%%%%%$%%%%%%%%%%%%%%*cDDDDc%%%%%%%%%%%%%%%%%%%%%%%%%%%%%%%$&F",
"F0%%%%%%%$$$$$$$##$$$$$*mDDDDj@#$$$$#$$$$$$$$$$$$#$%%%%%%%%%%%%<",
"F:%%%%%%&9rrrrrrrrrrrrrpZDDDScrrrrrrrrrrrrrrrrrrrr4%%%%%%%%%%%%-",
"F+%%%%%%6nSSSSSSSSSSSSSSDDDDDSSSSSSSSSSSSSSSSSSSSCf$%%%%%%%%%%%O",
"Fo%%%%%$eZDDDDDDDDDDDDDDDDDDDDDDDDDDDDDDDDDDDDDDDCu$%%%%%%%%%%%.",
"Fo%%%%%$pDDDDDDDDDDDDDDDDDDDDDDDDDDDDDDDDDDDDDDDDV9$%%%%%%%%%%% ",
"Fo%%%%%*kDDDDDDDDDDDDDDDDDDDDDDDDDDDDDDDDDDDDDDDDM=%%%%%%%%%%%%.",
"F+%%%%%%8iiiiiiiiiiiiifZDDDSvppppppppppppppppppppe&$%%%%%%%%%%%O",
"F:%%%%%%$$$#$###$##$$#=ADDDCu#$##$#$$#$#$#$##$#$#$%%%%%%%%%%%%%-",
"F0&$%%%%%%%%%%%%%%%%%%eDDDDV9%%%%%%%%%%%%$%%%%%%%%%%%%%%%%%%%%%1",
"Fy%%%%%%%%%%%%%%%%%%%%gDDDDN=%%%%%%%%%%%%%%%%%%%%%%%%%%%%%%%%%&F",
"FF&$%%%%%%%%%%%%%%%%%&xDDDDb$%%%%%%%%%%%%%%%%%%%%%%%%%%%%%%%%%&F",
"FF&%%%%%%%%%%%%%%%%%%&nDDDDx$%%%%%%%%%%%%%%%%%%%%%%%%%%%%%%%%%XF",
"FF-%%%%%%%%%%%%%%%%%%*CDDDAf$%%%%%%%%%%%%%%%%%%%%%%%%%$%%%%%%%:F",
"FFq%%%%%%%%%%%%%%%%%%4SDDDCr%%%%%%%%%%%%%%%%%%%%%%%%%%%%%%%%%%yF",
"FFF%%%%%%%%%%%%%%%%%%uDDDDV4%%%%%%%%%%%%%%%%%%%%%%%%%%%%%%%%$&FF",
"FFF+%%%%%%%%%%%%%%%%&gDDDDN*%%%%%%%%%%%%%%%%%%%%%%%%%%%%%%%%%:FF",
"FFFy%%%%%%%%%%%%%%%%&vDDDDb$%%%%%%%%%%%%%%%%%%%%%%%%%%%%%%%%%dFF",
"FFFF&%%%%%%%%%%%%%%%&BDDDSk$%%%%%%%%%%%%%%%%%%%%%%%%%%%%%%%%+FFF",
"FFFFq%%$%%%%%%%%%%%%*ZDDDZp%%%%%%%%%%%%%%%%%%%%%%%%%%%%%%%%%aFFF",
"FFFFFO%%%%%%%%%%%%%%wSDDDCw$%%%%%%%%%%%%%%%%%$%%%%%%%%%%%%%+FFFF",
"FFFFFy%%%%%%%%%%%%%&pDDDDV2$%%%%%%%%%%%%%%%%%%%%%%%%%%%%%%%dFFFF",
"FFFFFF:$%%%%%%%%%%%%kCAAAb%%%%%%%%%%%%%%%%%%%%%%%%%%%%%%%$5FFFFF",
"FFFFFFFO%%%%%%%%%%%%egggfr%%%%%%%%%%%%%%%%%%%%%%%%%%%%%%%+FFFFFF",
"FFFFFFFa%%%%%%%%%%%%%##%#$%%%%%%%%%%%%%%%%%%%%%%%%%%%%%$&dFFFFFF",
"FFFFFFFF0$%%%%%%%%%%%%%%%%%%%%%%%%%%%%%%%%%%%%%%%%%%%%%%tFFFFFFF",
"FFFFFFFFF7$%%%%%%%%%%%%%%%%%%%%%%%%%%%%%%%%%%%%%%%%%%%$qFFFFFFFF",
"FFFFFFFFFF5$%%%%%%%%%%$%%%%%%%%%%%%%%%%%%%%%%%%%%%%%%$7FFFFFFFFF",
"FFFFFFFFFFF7$%%%%%%%%%%%%%%%%%%%%%%%%%%%%%%%%%%%%%%%$0FFFFFFFFFF",
"FFFFFFFFFFFF0%%%%%%%%%%%%%%%%%%%%%%%%%%%%%%%%%%%%%%%tFFFFFFFFFFF",
"FFFFFFFFFFFFFsO$%%%%%%%%%%%%%%%%%%%%%%%%%%%%%%%%%%+dFFFFFFFFFFFF",
"FFFFFFFFFFFFFFF5X%%%%%%%%%%%%%%%%%%%%%%%%%%%%%%%%>FFFFFFFFFFFFFF",
"FFFFFFFFFFFFFFFFa&$%%%%%%%%%%%%%%#%%%%%%%%%%%%$+dFFFFFFFFFFFFFFF",
"FFFFFFFFFFFFFFFFFFtO%%%%%%%%%%%%%%%%%%%%%%%%%OyFFFFFFFFFFFFFFFFF",
"FFFFFFFFFFFFFFFFFFFFy+&%$%%%%$%%%%%%%%%%%&&+dFFFFFFFFFFFFFFFFFFF",
"FFFFFFFFFFFFFFFFFFFFFFFt-&&&&%%%%%X%&%%&-tFFFFFFFFFFFFFFFFFFFFFF",
"FFFFFFFFFFFFFFFFFFFFFFFFFFFF,-o   O;7FFFFFFFFFFFFFFFFFFFFFFFFFFF"
};
