/* XPM */
static char *e4335ffa91f847d99b7ea2177136f51e[] = {
/* columns rows colors chars-per-pixel */
"32 32 176 2 ",
"   c #29A8DD",
".  c #2AA8DD",
"X  c #2CA9DD",
"o  c #2DA9DD",
"O  c #33ABDE",
"+  c #33ACDE",
"@  c #3CAFDF",
"#  c #26A9E0",
"$  c #27A9E0",
"%  c #26AAE1",
"&  c #27AAE1",
"*  c #24A9E2",
"=  c #25AAE2",
"-  c #26AAE2",
";  c #27AAE2",
":  c #27ABE2",
">  c #28AAE1",
",  c #29AAE1",
"<  c #29ABE1",
"1  c #2AABE1",
"2  c #2BABE1",
"3  c #28AAE2",
"4  c #28ABE2",
"5  c #29ABE2",
"6  c #2AABE2",
"7  c #2CABE1",
"8  c #2BACE2",
"9  c #2EACE1",
"0  c #2CACE2",
"q  c #2DACE2",
"w  c #2CACE3",
"e  c #2DADE3",
"r  c #2EADE3",
"t  c #2FAEE3",
"y  c #30ACE1",
"u  c #31ADE2",
"i  c #32ADE2",
"p  c #31AEE2",
"a  c #30AEE3",
"s  c #33AEE2",
"d  c #32AEE3",
"f  c #32AFE3",
"g  c #33AFE3",
"h  c #34AEE1",
"j  c #36AEE1",
"k  c #37AEE1",
"l  c #34AEE2",
"z  c #36AFE2",
"x  c #39AFE1",
"c  c #3AAEE0",
"v  c #38AFE2",
"b  c #35B0E3",
"n  c #37B1E4",
"m  c #3AB0E2",
"M  c #3EB1E2",
"N  c #3FB1E2",
"B  c #3FB2E2",
"V  c #3BB2E4",
"C  c #3CB2E5",
"Z  c #3DB3E5",
"A  c #3EB3E4",
"S  c #40B2E2",
"D  c #40B2E3",
"F  c #46B4E2",
"G  c #46B4E3",
"H  c #40B4E5",
"J  c #41B4E5",
"K  c #43B5E5",
"L  c #46B6E6",
"P  c #48B4E1",
"I  c #49B4E1",
"U  c #4DB6E3",
"Y  c #4EB7E3",
"T  c #4BB8E7",
"R  c #4DB9E7",
"E  c #4FBAE7",
"W  c #50B7E3",
"Q  c #51B8E3",
"!  c #52B8E3",
"~  c #55B9E3",
"^  c #57B9E3",
"/  c #50BAE7",
"(  c #51BBE7",
")  c #52BBE7",
"_  c #55B9E4",
"`  c #59BBE4",
"'  c #52BBE8",
"]  c #54BBE8",
"[  c #54BCE8",
"{  c #56BCE8",
"}  c #56BDE8",
"|  c #57BDE8",
" . c #58BDE8",
".. c #59BEE8",
"X. c #59BEE9",
"o. c #5BBEE9",
"O. c #5BBFE9",
"+. c #61BEE5",
"@. c #62BFE5",
"#. c #5EC0E9",
"$. c #69C1E5",
"%. c #6AC1E6",
"&. c #6BC1E6",
"*. c #6DC2E7",
"=. c #61C1E9",
"-. c #62C1E9",
";. c #65C3EA",
":. c #6AC5EB",
">. c #6EC6EB",
",. c #70C3E6",
"<. c #73C4E7",
"1. c #74C5E7",
"2. c #75C5E7",
"3. c #77C6E8",
"4. c #7CC8E8",
"5. c #7EC8E8",
"6. c #7FC9E8",
"7. c #7FC9E9",
"8. c #7ECCED",
"9. c #7FCCED",
"0. c #80C9E8",
"q. c #80C9E9",
"w. c #82CAE9",
"e. c #83CAE9",
"r. c #84CBE9",
"t. c #85CBE9",
"y. c #85CFEE",
"u. c #8BCEEA",
"i. c #8AD1EF",
"p. c #91D0EB",
"a. c #8FD3F0",
"s. c #94D5F0",
"d. c #9DD8F2",
"f. c #A6DCF3",
"g. c #A7DCF3",
"h. c #A8DDF3",
"j. c #ABDDF3",
"k. c #AFDFF4",
"l. c #B0E0F4",
"z. c #B7E3F5",
"x. c #B8E3F5",
"c. c #B9E3F5",
"v. c #C4E8F7",
"b. c #C8E9F7",
"n. c #CAEAF7",
"m. c #CEECF9",
"M. c #D0ECF8",
"N. c #D0EDF8",
"B. c #D2EDF9",
"V. c #D8EFF9",
"C. c #DAF0FA",
"Z. c #DBF1FA",
"A. c #DFF2FB",
"S. c #E1F3FB",
"D. c #E2F4FB",
"F. c #E4F4FB",
"G. c #E7F5FB",
"H. c #ECF7FC",
"J. c #EDF8FC",
"K. c #F0F9FD",
"L. c #F1FAFD",
"P. c #F2FAFD",
"I. c #F3FAFD",
"U. c #F6FBFE",
"Y. c #F6FCFD",
"T. c #F7FCFE",
"R. c #F8FCFE",
"E. c #F9FCFE",
"W. c #F9FDFE",
"Q. c #FAFDFE",
"!. c #FBFDFE",
"~. c #FCFEFF",
"^. c #FDFFFF",
"/. c #FEFEFF",
"(. c gray100",
"). c None",
/* pixels */
").).).).).).).).).).).).).).).t.w.u.).).).).).).).).).).).).).).",
").).).).).).).).).).).+.N p 5 ; # 5 r z Y 5.).).).).).).).).).).",
").).).).).).).).).G 5 ; ; 5 5 5 5 5 5 5 ; ; z $.).).).).).).).).",
").).).).).).).` 5 5 5 5 5 5 5 5 5 5 5 5 5 5 ; ; V ).).).).).).).",
").).).).).).N ; 5 5 5 5 5 5 5 5 5 5 5 5 5 5 5 5 5 7 2.).).).).).",
").).).).).v ; 5 5 5 5 5 5 5 5 5 5 5 5 5 5 5 5 5 5 ; 5 ,.).).).).",
").).).).N ; 5 5 w 5 4 < 5 < r r r r r r r r r r r r r 5 w.).).).",
").).).` ; 5 5 5 4 4 4 < a a.c.c.z.z.z.z.z.z.z.z.z.z.g.H p ).).).",
").).).< 5 5 5 5 5 5 5 ; A V.(.(.(.(.(.(.(.(.(.(.(.(.C.A ; Y ).).",
").).G ; 5 5 5 5 5 5 5 ; E H.(.N.f.f.f.f.f.f.f.f.f.f.y.r ; 5 ).).",
").).< < 5 5 5 5 < < 5 ; :.R.(.9.; 5 5 5 5 5 5 5 5 5 ; 5 5 5 _ ).",
").=.; < 5 5 5 5 < < ; ; i.(.Y.-.; 5 5 5 5 5 5 5 5 5 5 5 5 5 p ).",
").N 5 5 5 5 5 5 < 4 4 4 h.(.F.T ; ; : < 5 5 5 ; 5 5 5 5 5 5 5 6.",
").p 5 5 ; ; ; ; - - - g v.(.N.g ; ; ; ; ; ; ; ; ; 5 5 5 5 5 5 ^ ",
").5 5 5 V [ [ [ [ [ ' ;.D.(.v. .[ [ ' ' [ [ [ [ ( b ; 5 5 5 5 @ ",
"t.; 5 5 s.K.K.K.K.K.K.K.(.(.Q.K.K.K.K.K.K.K.K.K.S.[ ; 5 5 5 5 X ",
"w.5 < w z.Q.U.U.U.U.U.Q.(.(.(.Q.Q.Q.Q.R.Q.Q.R.(.V.K ; 5 5 5 5   ",
"u.5 4 w R  . . . . .[ k.(.K.8.[  .#.o. .o. . .o./ r 5 5 5 5 5 + ",
").r 4 4 ; ; ; ; ; ; 5 k.(.A.K * - - - - ; ; ; ; ; 5 5 5 5 5 5 P ",
").z 4 4 < ; 5 5 5 5 n m.(.n.p 5 6 6 6 6 5 5 5 5 5 5 5 5 5 5 5 $.",
").Y ; 5 5 5 5 5 5 ; L F.(.j.r 5 6 - 5 5 5 5 5 5 5 5 5 5 5 5 r ).",
").w.; 5 5 w 5 5 5 ; -.U.(.i.; 5 4 4 5 5 5 5 5 5 5 5 5 5 5 ; H ).",
").).p 5 4 4 4 < : ; 9.Q.Q.>.- 4 4 w 5 5 5 5 5 5 5 5 5 5 5 ; 3.).",
").).$.; 4 4 4 < < ; d.(.J./ 6 < 4 4 5 5 5 5 5 5 5 5 5 5 5 z ).).",
").).).v 5 5 5 5 5 p l.K.N.A ; < 5 5 5 5 5 5 5 5 5 5 5 5 ; 6.).).",
").).).p.5 5 5 5 5 < / #.' < 5 5 5 5 5 5 5 5 5 5 5 5 5 ; Q ).).).",
").).).).<.  5 5 5 5 ; ; 5 5 5 5 5 5 5 5 5 5 5 5 5 5 ; S ).).).).",
").).).).).*.5 5 5 5 5 5 5 5 5 5 5 5 5 5 5 5 5 5 5 ; N ).).).).).",
").).).).).).w.r ; 5 5 5 5 5 5 5 5 5 5 5 < 4 4 5 ; Q ).).).).).).",
").).).).).).).).Y 5 ; ; 5 5 5 5 5 5 5 5 < < ; z 5.).).).).).).).",
").).).).).).).).).).! p 5 5 5 5 5 5 ; ; 7 N 2.).).).).).).).).).",
").).).).).).).).).).).).4.^ v X   + P $.).).).).).).).).).).).)."
};
