/* XPM */
static char *d952ebfaec8f4291b140d8fca43d1598[] = {
/* columns rows colors chars-per-pixel */
"128 128 77 1 ",
"  c #2BA3D6",
". c #24A4DB",
"X c #2AA6DA",
"o c #25A8DF",
"O c #2CA9DE",
"+ c #34A7D7",
"@ c #32A7D9",
"# c #34ABDD",
"$ c #3BADDD",
"% c #3EB0DF",
"& c #1EA7E1",
"* c #22A7E1",
"= c #25A9E1",
"- c #29ABE2",
"; c #33AEE2",
": c #39AFE0",
"> c #36B0E4",
", c #3BB1E4",
"< c #43AEDC",
"1 c #44B1DE",
"2 c #4CB3DE",
"3 c #53B5DE",
"4 c #5BB7DE",
"5 c #5DB8DE",
"6 c #60BADF",
"7 c #68BADE",
"8 c #43B5E5",
"9 c #4BB5E2",
"0 c #4DB9E6",
"q c #53B6E0",
"w c #5AB7E0",
"e c #53BAE5",
"r c #5CB9E1",
"t c #55BCE8",
"y c #5ABEE9",
"u c #64BCE1",
"i c #6CBEE2",
"p c #5EC0E9",
"a c #6DC0E3",
"s c #65C3EA",
"d c #6BC5EB",
"f c #74C2E3",
"g c #7BC4E3",
"h c #71C7EC",
"j c #75C9EC",
"k c #7BCBED",
"l c #82C6E3",
"z c #85C9E5",
"x c #8CCBE5",
"c c #81CDEE",
"v c #8DCDE8",
"b c #90CDE7",
"n c #90CEE8",
"m c #87D0EE",
"M c #8BD1EF",
"N c #8ED2F0",
"B c #95D5F0",
"V c #9AD7F1",
"C c #9ED9F2",
"Z c #A4DBF2",
"A c #ABDEF4",
"S c #B0DFF4",
"D c #B5E2F4",
"F c #BBE4F5",
"G c #C2E6F6",
"H c #C6E8F7",
"J c #CAEAF7",
"K c #CCEBF8",
"L c #D3EEF9",
"P c #D9EFF9",
"I c #DCF1FA",
"U c #E4F4FB",
"Y c #E9F6FC",
"T c #EEF8FD",
"R c #F4FBFE",
"E c #FEFFFF",
"W c None",
/* pixels */
"WWWWWWWWWWWWWWWWWWWWWWWWWWWWWWWWWWWWWWWWWWWWWWWWWWWWWWWWWWWWWWWWWWWWWWWWWWWWWWWWWWWWWWWWWWWWWWWWWWWWWWWWWWWWWWWWWWWWWWWWWWWWWWWW",
"WWWWWWWWWWWWWWWWWWWWWWWWWWWWWWWWWWWWWWWWWWWWWWWWWWWWWWWWWWWWWWWWWWWWWWWWWWWWWWWWWWWWWWWWWWWWWWWWWWWWWWWWWWWWWWWWWWWWWWWWWWWWWWWW",
"WWWWWWWWWWWWWWWWWWWWWWWWWWWWWWWWWWWWWWWWWWWWWWWWWWWWWWWnlfiur44222345uuigzWWWWWWWWWWWWWWWWWWWWWWWWWWWWWWWWWWWWWWWWWWWWWWWWWWWWWW",
"WWWWWWWWWWWWWWWWWWWWWWWWWWWWWWWWWWWWWWWWWWWWWWWWWWWWlfuw2<$#OX...... X##12wifzWWWWWWWWWWWWWWWWWWWWWWWWWWWWWWWWWWWWWWWWWWWWWWWWWW",
"WWWWWWWWWWWWWWWWWWWWWWWWWWWWWWWWWWWWWWWWWWWWWWWg598,,,>;;-;X-=--oooooO-;;;;;,,,93ugWWWWWWWWWWWWWWWWWWWWWWWWWWWWWWWWWWWWWWWWWWWWW",
"WWWWWWWWWWWWWWWWWWWWWWWWWWWWWWWWWWWWWWWWWWWWvfr1@o-*====--=---------;---=----=**X#2rgnWWWWWWWWWWWWWWWWWWWWWWWWWWWWWWWWWWWWWWWWWW",
"WWWWWWWWWWWWWWWWWWWWWWWWWWWWWWWWWWWWWWWWWgw1:;;-;---------------------------------->:,25zWWWWWWWWWWWWWWWWWWWWWWWWWWWWWWWWWWWWWWW",
"WWWWWWWWWWWWWWWWWWWWWWWWWWWWWWWWWWWWWWWza2#o--==-----------------------------------==-O;3anWWWWWWWWWWWWWWWWWWWWWWWWWWWWWWWWWWWWW",
"WWWWWWWWWWWWWWWWWWWWWWWWWWWWWWWWWWWWWa2:>------------------------------=---------------->-:qfWWWWWWWWWWWWWWWWWWWWWWWWWWWWWWWWWWW",
"WWWWWWWWWWWWWWWWWWWWWWWWWWWWWWWWWWWgr1o==----=-----------------------------------------=-=o#2azWWWWWWWWWWWWWWWWWWWWWWWWWWWWWWWWW",
"WWWWWWWWWWWWWWWWWWWWWWWWWWWWWWWWWgq#;-----------------==--------------------------------------$rzWWWWWWWWWWWWWWWWWWWWWWWWWWWWWWW",
"WWWWWWWWWWWWWWWWWWWWWWWWWWWWWWWna9#-----------------------=-----------------------------------o;qfWWWWWWWWWWWWWWWWWWWWWWWWWWWWWW",
"WWWWWWWWWWWWWWWWWWWWWWWWWWWWWWf1--------------------------------------------------=--------------#2gWWWWWWWWWWWWWWWWWWWWWWWWWWWW",
"WWWWWWWWWWWWWWWWWWWWWWWWWWWWvu8O==-------------------------------------------------------------=--#8aWWWWWWWWWWWWWWWWWWWWWWWWWWW",
"WWWWWWWWWWWWWWWWWWWWWWWWWWWg2;o---------------------------------------==----------------------------;4zWWWWWWWWWWWWWWWWWWWWWWWWW",
"WWWWWWWWWWWWWWWWWWWWWWWWWWa1#----------------------------------------------------------------------=-$9gWWWWWWWWWWWWWWWWWWWWWWWW",
"WWWWWWWWWWWWWWWWWWWWWWWWWw$---------------------------------------------------------------------------;$uWWWWWWWWWWWWWWWWWWWWWWW",
"WWWWWWWWWWWWWWWWWWWWWWWxw:o-----------------------------------------------------------------------------%uWWWWWWWWWWWWWWWWWWWWWW",
"WWWWWWWWWWWWWWWWWWWWWWb2----------------------------------------------=----------------------------------#qWWWWWWWWWWWWWWWWWWWWW",
"WWWWWWWWWWWWWWWWWWWWWg2;----------------------------------------------------------------------------------:qxWWWWWWWWWWWWWWWWWWW",
"WWWWWWWWWWWWWWWWWWWWx9oo-----------------------------------------------------------------------------------XqWWWWWWWWWWWWWWWWWWW",
"WWWWWWWWWWWWWWWWWWWg8#----------------------------------------------------------------=---------------------;qvWWWWWWWWWWWWWWWWW",
"WWWWWWWWWWWWWWWWWWv9X--------------=------------------------------------------------------------------------oOwWWWWWWWWWWWWWWWWW",
"WWWWWWWWWWWWWWWWWz2;--------------------=----------=----------------------------------------------------------;3WWWWWWWWWWWWWWWW",
"WWWWWWWWWWWWWWWWWwo-------------------------------------------------------------------------------------------o#uWWWWWWWWWWWWWWW",
"WWWWWWWWWWWWWWWW4$-==-------------------------------------------------------------------------------------------8uWWWWWWWWWWWWWW",
"WWWWWWWWWWWWWWWi;-------------------------------------==o---=-=o=-==--o-=-o=---o=-==--o-=-o=o--o*-*-o-==--=----=O$gWWWWWWWWWWWWW",
"WWWWWWWWWWWWWWg9;------------------------------------------O-------------------O-------O-------O-----------------;3xWWWWWWWWWWWW",
"WWWWWWWWWWWWWn2O------------------------------------>0sssdsssdssdssssddsssssssssssssssssssssssssssdssdsssssy0;----#wWWWWWWWWWWWW",
"WWWWWWWWWWWWWu;------------------------------------>0kDFDDDDDDDFDDDDDDDFDDFDFDDDDDFDFDDDDDDFDFFDDDDDDDDDDDAVh>=---o;fWWWWWWWWWWW",
"WWWWWWWWWWWWf1==-----------------------------------,pZIYUUUUUUUUYYUUUUUUUUUYUIUIUUUYUIUIUYUUUIUIUUUUUUUUYYPDj,o-----9zWWWWWWWWWW",
"WWWWWWWWWWWn1O-----------------------=-------------0jFREEEREERREREREREEREREREEEEREEREEEEEREREEEEEEEREEREERYDk,------#2WWWWWWWWWW",
"WWWWWWWWWWWa;o--------=--------------------------=-0MHEEEEEEEEEEEEEEEEEEEEEEEEEEEEEEEEEEEEEEEEEEEEEEEEEEEEYAh,=-----=;gWWWWWWWWW",
"WWWWWWWWWWg2---------------------------------------pVLREEEEEEEEEEEEEEEEEEEEEEEEEEEEEEEEEEEEEEEEEEEEEEEEEEEUBy>=------;qxWWWWWWWW",
"WWWWWWWWWWq#---------------------------------------sAIEEEEEEEEEEEEEEEEEEEEEEEEEEEEEEEEEEEEEEEEEEEEEEEEEEEEImt;=-------:rWWWWWWWW",
"WWWWWWWWWz;----------------------------------------hFYEEEEEEEEEEEEEEEEEEEEEEEEEEEEEEEEEEEEEEEEEEEEEEEEEEEEPk8;---------,WWWWWWWW",
"WWWWWWWWWw;*-------------------------------------=-jKREEEEEEEEEEEEEEEEEEEEEEEEEEEEEEEEEEEEEEEEEEEEEEEEEEEELd>---------*;aWWWWWWW",
"WWWWWWWWa1-----------------------------------------mIEEEEEEEERTYUUUUUYUUUUUUYYUUUUUUUYUUUUUUUYUUUUUUUUUUUTDy-----------;qlWWWWWW",
"WWWWWWWW2O----------------------------------------;MYEEEEEEERLDNkcccccccckcckcckckccccccckcckmckccccckcccch,----------=-#wWWWWWW",
"WWWWWWWz#--------------------------------------=--8BREEEEEEETDk0,>,,,>,,,,,,,,,,,,,,,>,,,,,,,,,>,,,,,,,,>,>-------------.8WWWWWW",
"WWWWWWWi;=-------------------------------------=-;eZREEEEEEEYZs,------;----;--->---;--;----;---;-----;--;---------------=;gWWWWW",
"WWWWWWl2-----------------------------------------8sAREEEEEEEUBt>---------------------------------------------------------;wWWWWW",
"WWWWWW5#---------------=-----------------------=-8jFREEEEEEEIm8;----------------------------------------------------------$iWWWW",
"WWWWWW8o---------------------------------------=-0mHREEEEEEEIj>--------------------------------------------------=--------O4WWWW",
"WWWWWn,=---------------------------------------=-tVKREEEEEEELd-------------------------------------------------------------8WWWW",
"WWWWWf:=---------------------------------------=-pAIEEEEEEERHs==----------------------------------------------------------=,zWWW",
"WWWWWr;-------------------=--------------------=-dFUEEEEEERTFp==----------------------------------------------------------=:iWWW",
"WWWWg1-----------------------------------------=-hKREEEEEERIZt-------------------------------------------------------------;3xWW",
"WWWWr#-----------------------------------------=-kIEEEEEEERKB0-=------------------------------------------------------------$fWW",
"WWWWqX---------------=--------------------------;cUEEEEEEERGm0-=-------------------------------=----------------------------OrWW",
"WWWW8*--------------------------------=------=--8NTEEEEEEETDh8-=-----------------------=-------------------------------=---=oqWW",
"WWWW8*----------------------=------------------>0CTEEEEEEETZs,--------------------------------------------------------------=0WW",
"WWWz:*----------==----------------------------=,sZREEEEEEEYBt>--------------------------------------------------------------=8WW",
"WWWf,------------------------------------------8hDREEEEEEEYM8---------------------------------------------------------------=,WW",
"WWWu;----------------------------------------=-0cFREEEEEEEUk>----------------------------------------------------------------,fW",
"WWW4;-------=--------------------------------=-eBKREEEEEEEPh-----------------------------------------------------------------:uW",
"WWz9;*---------------------------------------=-yZPREEEEEERLd-=--------------------------------------------------------------=:wW",
"WWg<;=-----------===****=**=***=&=&=*==*=**==**yDYREEEEERYFy=&&==&==&===*&*==&*=&==&===-&=&==&==*&*==-------------------------25",
"WWi$;------------;>,8888,888888888888,88,8888,,jKREEEEEERUDh,888,888,8,88,8888,88888,88,8,88,888,88,,------------------------#13",
"WWu#------------;0dNCCCCCCCCCVCCCCCCCCCCCCCCCCCFUREEEEEEETPDCCCCCCCCCCZCCCCCCCCCCCCCCCCCZCCCCCCCCCCBk0--=--------------------O$<",
"WWrX;----------->sVKUUUUUUUUUUUUIUUUUUUUUUUUUUUYEEEEEEEEERRYUUUUYTUUUUUUUUUYYYYUUUUUUUUYUTUUUUUUUYUKAp-=---------------------O$$",
"WW4Xo----------=,jDUERERRERERERERRERRERERERERREEEEEEEEEEEEERREERRRRRERRERERRRRRRERRERERRRRRRERRERRRPAp-=---------------------o@+",
"WW4.-----------=,MKTEEEEEEEEEEEEEEEEEEEEEEEEEEEEEEEEEEEEEEEEEEEEEEEEEEEEEEEEEEEEEEEEEEEEEEEEEEEEEERPVp-----------------------O  ",
"WW3.o----------&8CIREEEEEEEEEEEEEEEEEEEEEEEEEEEEEEEEEEEEEEEEEEEEEEEEEEEEEEEEEEEEEEEEEEEEEEEEEEEEEERHN0-=---------------------oX ",
"WW2.=-----------9AREEEEEEEEEEEEEEEEEEEEEEEEEEEEEEEEEEEEEEEEEEEEEEEEEEEEEEEEEEEEEEEEEEEEEEEEEEEEEEERFk0------------------------o.",
"WW3.------------0FREEEEEEEEEEEEEEEEEEEEEEEEEEEEEEEEEEEEEEEEEEEEEEEEEEEEEEEEEEEEEEEEEEEEEEEEEEEEEEERAd,------------------------X ",
"WW3.-----------,sGEEEEEEEEEEEEEEEEEEEEEEEEEEEEEEEEEEEEEEEEEEEEEEEEEEEEEEEEEEEEEEEEEEEEEEEEEEEEEEEERZt,-----------------------;X ",
"WW4.-----------8hGRRRRRRRRRRRRRRRRRRRRRRRRRRRREEEEEEEEEEEEEEEEEEEEEEEEEREEEEEEEEEEEREEEEEEEEEEEREEYB8------------------------o@ ",
"WWwX---------*-8yNASAAAAAAAAAAAAAAAAAAAAAAAAAGYEEEEEEEERUHDDDDDDDDDDDDSDDDDDDDDDDDDDDDDDDDDDDDSDDFZd,------------------------;X+",
"WWuX------------;,88888888880,,8888888888888,jKREEEEEERUDj8,888888888880888888888888888888888880888>-------------------------o+$",
"WWu#-------------=**=***=***==&&=***=******&=sLREEEEEERLVt-&=&&&==&*=&=&=&&==&===&&&==&&==&*=&=&**-------=-------------------O<<",
"WWa$-=--------------------------------------;hPEEEEEEEEHM0---------------------------------------------------------=---------#<3",
"WWg<;---------------------------------------,cUEEEEEEERFk0-------------------------------------------------------------------;35",
"WWz2;-------------------------------------->0NYEEEEEEERDh,-=-----------------------=----=-----------------------------------=;4W",
"WWWw;=--=----------------------------------,sVYEEEEEEERZy>---------=---------------------------------------------------------,uW",
"WWWi>=------------------------------------=,hATREEEEEERV0--------------------------------------------------------------------,fW",
"WWWf:=------------------------------------=8kFREEEEEEETN,--------------------------------------------------------------------8WW",
"WWWz,=------------------------------------=8NHREEEEEEEUc-=------------------------------------------------------------------*8WW",
"WWWW,*--------------------=--------------=-0CLREEEEEERLk--------------------------------------------------------------------=9WW",
"WWWW8=------------------------------------=tAYREEEEEETHh-=--------------------------------------------------------=---------*qWW",
"WWWW9X-----------------------------------==pFREEEEEEEUDs--------------------=------------------------------------------=----#uWW",
"WWWWu@;------------------------------------pKREEEEEERLCs---------------------------------------------------------------=----$fWW",
"WWWWg2-=-----------------------------------hLEEEEEEEEKNt-=----------------------------------------------------------------=;4vWW",
"WWWWWu;-----------------=-----------------,kIEEEEEEERHk0------------------------------------------------------------------=,aWWW",
"WWWWWg$---------------------------------=;0mIEEEEEEERDh8----------------------------------------------------==------------o,zWWW",
"WWWWWn,--------------------------------==>pVYEEEEEEERAp>---------------=--------------------------------------------------o8WWWW",
"WWWWWW9o---------------------------------,dZYEEEEEEERZ8;---------------------------=--------------------------------------O4WWWW",
"WWWWWW5#-=------------------------------=8kDYEEEEEEETV,-------------------------------------------------------------------1aWWWW",
"WWWWWWzq--------------------------------=8mGTEEEEEEEYM>------------------------------------------------------------------;uWWWWW",
"WWWWWWWi;-------------------------------*0VPREEEEEERPc-=--------------------------------------------------=-----------;--:gWWWWW",
"WWWWWWWn#=------------------------------=0ZIREEEEEEYHk-*-=--------------------------------------------------------------.8WWWWWW",
"WWWWWWWW2#---------=--------------------*tFREEEEEEEYDh;-----------------------------------------------------------------#rWWWWWW",
"WWWWWWWWa1-------------------------------yHEEEEEEEEPCp-=----------------------------------------------------------------3zWWWWWW",
"WWWWWWWWWu;=----------------------------;sKEEEEEEEEKNp>-----------------------=-------------=-------------------------*;fWWWWWWW",
"WWWWWWWWWz;o--------------------=------->hLEEEEEEERHk0----------------------------------------------------------------o8WWWWWWWW",
"WWWWWWWWWW4;--------------------=------;0cPEEEEEEEEFd0-=---------------=-------------------------------=------------=;$uWWWWWWWW",
"WWWWWWWWWWlq--------------------------->tBIREEEEEEEDy:--=------------=------------------------------------------------rWWWWWWWWW",
"WWWWWWWWWWWa#--------------------------,dZYEEEEEEERA0----------------------------------------------------------------$gWWWWWWWWW",
"WWWWWWWWWWWW1O------------------------=,hSURRERRRETC,---------------------------------------------------------------#qWWWWWWWWWW",
"WWWWWWWWWWWWg9-----------------------==,jAKUIUUIUUKm:---------------------------------------------------------------qxWWWWWWWWWW",
"WWWWWWWWWWWWWa#------------------------>dNZDSSSSAACd;=-----------------------=-------------------=-----------------:gWWWWWWWWWWW",
"WWWWWWWWWWWWWW3#------------------------8ttpppppppp,--------------------------------------------------------------$5WWWWWWWWWWWW",
"WWWWWWWWWWWWWWl9----------------------------------------------------------------------=--------------------------;wWWWWWWWWWWWWW",
"WWWWWWWWWWWWWWWf#O------------------------=-==-=====------------------------------------------------------------o1zWWWWWWWWWWWWW",
"WWWWWWWWWWWWWWWW6,;---------------------------------------------------------------------------=-----------------8aWWWWWWWWWWWWWW",
"WWWWWWWWWWWWWWWWWrOo------------------------------------------------------------------------------------------o#iWWWWWWWWWWWWWWW",
"WWWWWWWWWWWWWWWWWbq;-----------------------------------------------------------------------------------------o,rWWWWWWWWWWWWWWWW",
"WWWWWWWWWWWWWWWWWWWqoo-------------------------=--------------------------------=----------------------------#5WWWWWWWWWWWWWWWWW",
"WWWWWWWWWWWWWWWWWWWzq;--------------------------------------------------------------------------------------:wWWWWWWWWWWWWWWWWWW",
"WWWWWWWWWWWWWWWWWWWWW9o;------=----------------------------------------------=-----------------------------;wWWWWWWWWWWWWWWWWWWW",
"WWWWWWWWWWWWWWWWWWWWWzw;=------------------------------------=------------------------------------------=-:rWWWWWWWWWWWWWWWWWWWW",
"WWWWWWWWWWWWWWWWWWWWWWWqO---------=--------------------------------------------------------------------=-;rWWWWWWWWWWWWWWWWWWWWW",
"WWWWWWWWWWWWWWWWWWWWWWWbu:-----------------------------------------------------------------------------;8iWWWWWWWWWWWWWWWWWWWWWW",
"WWWWWWWWWWWWWWWWWWWWWWWWWu$;-----------------------=---------------------=---------------------------=;17WWWWWWWWWWWWWWWWWWWWWWW",
"WWWWWWWWWWWWWWWWWWWWWWWWWWf2#-=-----------------------------=--------------------------------------==#4gWWWWWWWWWWWWWWWWWWWWWWWW",
"WWWWWWWWWWWWWWWWWWWWWWWWWWWl3;----------------------------=-----------------------------------------$5bWWWWWWWWWWWWWWWWWWWWWWWWW",
"WWWWWWWWWWWWWWWWWWWWWWWWWWWWWa9Oo=---------------------------------------------------------------o#qgWWWWWWWWWWWWWWWWWWWWWWWWWWW",
"WWWWWWWWWWWWWWWWWWWWWWWWWWWWWWg2:----------------------------------------------------------------;2xWWWWWWWWWWWWWWWWWWWWWWWWWWWW",
"WWWWWWWWWWWWWWWWWWWWWWWWWWWWWWWWfq#o=-------------------------------------------------------==-$wgWWWWWWWWWWWWWWWWWWWWWWWWWWWWWW",
"WWWWWWWWWWWWWWWWWWWWWWWWWWWWWWWWWzw$;--------------------------------------------------------;$uWWWWWWWWWWWWWWWWWWWWWWWWWWWWWWWW",
"WWWWWWWWWWWWWWWWWWWWWWWWWWWWWWWWWWWvu2#oo------------------------------------------------=-#qaWWWWWWWWWWWWWWWWWWWWWWWWWWWWWWWWWW",
"WWWWWWWWWWWWWWWWWWWWWWWWWWWWWWWWWWWWWfq,;--;---------------------------------------------$,wgWWWWWWWWWWWWWWWWWWWWWWWWWWWWWWWWWWW",
"WWWWWWWWWWWWWWWWWWWWWWWWWWWWWWWWWWWWWWWWa4$o=*--------=------------------------------oX$wgWWWWWWWWWWWWWWWWWWWWWWWWWWWWWWWWWWWWWW",
"WWWWWWWWWWWWWWWWWWWWWWWWWWWWWWWWWWWWWWWWWz798:;;-------------------------=----=--O-;,84iWWWWWWWWWWWWWWWWWWWWWWWWWWWWWWWWWWWWWWWW",
"WWWWWWWWWWWWWWWWWWWWWWWWWWWWWWWWWWWWWWWWWWWWWgu2#-**=------*-----------*----===&O$3izWWWWWWWWWWWWWWWWWWWWWWWWWWWWWWWWWWWWWWWWWWW",
"WWWWWWWWWWWWWWWWWWWWWWWWWWWWWWWWWWWWWWWWWWWWWWWziw098,:;;@;;o--X=oX-;O;;;;;,,800razWWWWWWWWWWWWWWWWWWWWWWWWWWWWWWWWWWWWWWWWWWWWW",
"WWWWWWWWWWWWWWWWWWWWWWWWWWWWWWWWWWWWWWWWWWWWWWWWWWWWWgau32<$+@XXX.XX+$$<2wsfWWWWWWWWWWWWWWWWWWWWWWWWWWWWWWWWWWWWWWWWWWWWWWWWWWWW",
"WWWWWWWWWWWWWWWWWWWWWWWWWWWWWWWWWWWWWWWWWWWWWWWWWWWWWWWW742<$@      ++<35WWWWWWWWWWWWWWWWWWWWWWWWWWWWWWWWWWWWWWWWWWWWWWWWWWWWWWW"
};
